{"title":"Blue Jasmine (2013) BRRIP 720P","uid":9445900,"size":2054924213,"categoryP":"video","categoryS":"hd___movies","magnet":"?xt=urn:btih:c36652a479fe496bd0f34eb4408bfab0292ca9a8&amp;dn=+Blue+Jasmine+%282013%29+BRRIP+720P&amp;tr=udp%3A%2F%2Ftracker.openbittorrent.com%3A80&amp;tr=udp%3A%2F%2Fopen.demonii.com%3A1337&amp;tr=udp%3A%2F%2Ftracker.coppersurfer.tk%3A6969&amp;tr=udp%3A%2F%2Fexodus.desync.com%3A6969","seeders":1,"leechers":0,"uploader":"sonicx33","files":-1,"time":1389093868,"description":" &lt;a href=&quot;http://postimg.org/image/4x68zbwen/&quot; rel=&quot;nofollow&quot; target=&quot;_NEW&quot;&gt;http://postimg.org/image/4x68zbwen/&lt;/a&gt;\n\n\n &lt;a href=&quot;\nhttp://postimg.org/image/cr6ukq47j/&quot; rel=&quot;nofollow&quot; target=&quot;_NEW&quot;&gt;\nhttp://postimg.org/image/cr6ukq47j/&lt;/a&gt;\n\n\n &lt;a href=&quot;\nhttp://www.imdb.com/title/tt2334873/&quot; rel=&quot;nofollow&quot; target=&quot;_NEW&quot;&gt;\nhttp://www.imdb.com/title/tt2334873/&lt;/a&gt;\n\n\n\nFormat                                   : MPEG-4\nFormat profile                           : Base Media / Version 2\nCodec ID                                 : mp42\nFile size                                : 1.90 GiB\nDuration                                 : 1h 38mn\nOverall bit rate mode                    : Variable\nOverall bit rate                         : 2 758 Kbps\nMovie name                               : Blue Jasmine\nPerformer                                : Woody Allen\nGenre                                    : Drama\n\nRecorded date                            : UTC 2013-07-26 07:00:00\nEncoded date                             : UTC 2014-01-07 09:38:26\nTagged date                              : UTC 2014-01-07 10:13:53\nWriting application                      : HandBrake 0.9.9 2013051800\nCover                                    : Yes\n\nVideo\nID                                       : 1\nFormat                                   : AVC\nFormat/Info                              : Advanced Video Codec\nFormat profile                           : &lt;a class=&quot;__cf_email__&quot; href=&quot;/cdn-cgi/l/email-protection&quot; data-cfemail=&quot;c98ba8baaca5a0a7ac8985fde7f9&quot;&gt;[email&amp;#160;protected]&lt;/a&gt;&lt;script cf-hash='f9e31' type=&quot;text/javascript&quot;&gt;\n/* &lt;![CDATA[ */!function(){try{var t=&quot;currentScript&quot;in document?document.currentScript:function(){for(var t=document.getElementsByTagName(&quot;script&quot;),e=t.length;e--;)if(t[e].getAttribute(&quot;cf-hash&quot;))return t[e]}();if(t&amp;&amp;t.previousSibling){var e,r,n,i,c=t.previousSibling,a=c.getAttribute(&quot;data-cfemail&quot;);if(a){for(e=&quot;&quot;,r=parseInt(a.substr(0,2),16),n=2;a.length-n;n+=2)i=parseInt(a.substr(n,2),16)^r,e+=String.fromCharCode(i);e=document.createTextNode(e),c.parentNode.replaceChild(e,c)}}}catch(u){}}();/* ]]&gt; */&lt;/script&gt;\nFormat settings, CABAC                   : No\nFormat settings, ReFrames                : 1 frame\nCodec ID                                 : avc1\nCodec ID/Info                            : Advanced Video Coding\nDuration                                 : 1h 38mn\nBit rate                                 : 2 648 Kbps\nWidth                                    : 1 280 pixels\nHeight                                   : 720 pixels\nDisplay aspect ratio                     : 2.40:1\nFrame rate mode                          : Variable\nFrame rate                               : 23.976 fps\nMinimum frame rate                       : 23.974 fps\nMaximum frame rate                       : 23.981 fps\nColor space                              : YUV\nChroma subsampling                       : 4:2:0\nBit depth                                : 8 bits\nScan type                                : Progressive\nBits/(Pixel*Frame)                       : 0.120\nStream size                              : 1.76 GiB (93%)\nWriting library                          : x264 core 130 r2273 b3065e6\nEncoding settings                        : cabac=0 / ref=1 / deblock=0:0:0 / \nEncoded date                             : UTC 2014-01-07 09:38:26\nTagged date                              : UTC 2014-01-07 10:13:53\nColor primaries                          : BT.709\nTransfer characteristics                 : BT.709\nMatrix coefficients                      : BT.709\n\nAudio\nID                                       : 2\nFormat                                   : AAC\nFormat/Info                              : Advanced Audio Codec\nFormat profile                           : LC\nCodec ID                                 : 40\nDuration                                 : 1h 38mn\nBit rate mode                            : Variable\nBit rate                                 : 192 Kbps\nMaximum bit rate                         : 374 Kbps\nChannel(s)                               : 2 channels\nChannel positions                        : Front: L R\nSampling rate                            : 44.1 KHz\nCompression mode                         : Lossy\nStream size                              : 135 MiB (7%)\nLanguage                                 : English\nEncoded date                             : UTC 2014-01-07 09:38:26\nTagged date                              : UTC 2014-01-07 10:13:53\n\n\n\nStoryline\n\nJasmine French used to be on the top of the heap as a New York socialite, but now is returning to her estranged sister in San Francisco utterly ruined. As Jasmine struggles with her haunting memories of a privileged past bearing dark realities she ignored, she tries to recover in her present. Unfortunately, it all proves a losing battle as Jasmine's narcissistic hangups and their consequences begin to overwhelm her. In doing so, her old pretensions and new deceits begin to foul up everyone's lives, especially her own. ","torrent":{"xt":"urn:btih:c36652a479fe496bd0f34eb4408bfab0292ca9a8","amp;dn":"+Blue+Jasmine+%282013%29+BRRIP+720P","amp;tr":["udp%3A%2F%2Ftracker.openbittorrent.com%3A80","udp%3A%2F%2Fopen.demonii.com%3A1337","udp%3A%2F%2Ftracker.coppersurfer.tk%3A6969","udp%3A%2F%2Fexodus.desync.com%3A6969"],"infoHash":"c36652a479fe496bd0f34eb4408bfab0292ca9a8","infoHashBuffer":{"type":"Buffer","data":[195,102,82,164,121,254,73,107,208,243,78,180,64,139,250,176,41,44,169,168]},"announce":[],"urlList":[]}}